# xmcd
#
# Track frame offsets:
#	150
#	16710
#	30960
#	48698
#	60053
#	73536
#	89329
#	104174
#	119544
#	133382
#	147262
#	157562
#	168829
#	182010
#	193877
#	204222
#	217044
#	229591
#
# Disc length: 3219 seconds
#
# Revision: 0
# Processed by: cddbd v1.5.2PL0 Copyright (c) Steve Scherf et al.
# Submitted via: EasyCDDAExtractor 16.0.9.1
#
DISCID=f30c9112
DTITLE=Bruce Low - Ein Mensch wie du und ich 2
DYEAR=1900
DGENRE=
TTITLE0=Sag, warum willst du von mir gehn
TTITLE1=Soviel Wind und keine Segel
TTITLE2=Bin nur ein Jonny
TTITLE3=Ein Paradies am Meeresstrand
TTITLE4=Heimwehlied
TTITLE5=Pechschwarze Augen
TTITLE6=Reiterballade
TTITLE7=Rot ist der Mond von Virginia
TTITLE8=Whisky ist kein Wasser
TTITLE9=Das alte Haus von Rocky Docky
TTITLE10=Wenn die Sonne scheint in Texas
TTITLE11=Golden Jimmy
TTITLE12=Leb wohl mein Mädchen
TTITLE13=Komm ins Land der Liebe
TTITLE14=Der Tom aus Tennessee
TTITLE15=Und es weht der Wind
TTITLE16=Wilde Rose von Arizona
TTITLE17=Fernando's Cabaret
EXTD=
EXTT0=
EXTT1=
EXTT2=
EXTT3=
EXTT4=
EXTT5=
EXTT6=
EXTT7=
EXTT8=
EXTT9=
EXTT10=
EXTT11=
EXTT12=
EXTT13=
EXTT14=
EXTT15=
EXTT16=
EXTT17=
PLAYORDER=
